<svg width="55" height="55" viewBox="0 0 55 55" fill="none" xmlns="http://www.w3.org/2000/svg">
<path d="M0 4C0 1.79086 1.79086 0 4 0H51C53.2091 0 55 1.79086 55 4V51C55 53.2091 53.2091 55 51 55H4C1.79086 55 0 53.2091 0 51V4Z" fill="#35B8BE"/>
<g clip-path="url(#clip0_13_58)">
<path d="M16.8322 21H13V19H19.4619L20.1219 23H36.5294V28.9384L18.5432 31.3694L16.8322 21ZM35.7941 36C34.5758 36 33.5882 35.3284 33.5882 34.5C33.5882 33.6716 34.5758 33 35.7941 33C37.0124 33 38 33.6716 38 34.5C38 35.3284 37.0124 36 35.7941 36ZM21.0882 36C19.87 36 18.8824 35.3284 18.8824 34.5C18.8824 33.6716 19.87 33 21.0882 33C22.3065 33 23.2941 33.6716 23.2941 34.5C23.2941 35.3284 22.3065 36 21.0882 36Z" fill="white"/>
</g>
<defs>
<clipPath id="clip0_13_58">
<rect width="25" height="17" fill="white" transform="translate(13 19)"/>
</clipPath>
</defs>
</svg>
